<svg xmlns="http://www.w3.org/2000/svg" xmlns:xlink="http://www.w3.org/1999/xlink" viewBox="0 0 363.49 71.04"><defs><style>.cls-1{fill:url(#Degradado_sin_nombre_6);}.cls-2{fill:url(#Degradado_sin_nombre_6-2);}.cls-3{fill:#092d4e;}.cls-4{fill:#003fbc;}</style><linearGradient id="Degradado_sin_nombre_6" x1="110.22" y1="9.49" x2="45.39" y2="46.92" gradientUnits="userSpaceOnUse"><stop offset="0.02" stop-color="#53e7ca"/><stop offset="0.52" stop-color="#8561c3"/><stop offset="1" stop-color="#003fbc"/></linearGradient><linearGradient id="Degradado_sin_nombre_6-2" x1="-10924.41" y1="9264.94" x2="-10989.24" y2="9302.37" gradientTransform="translate(-10915.57 9326.49) rotate(180)" xlink:href="#Degradado_sin_nombre_6"/></defs><g id="Capa_2" data-name="Capa 2"><g id="Capa_1-2" data-name="Capa 1"><path class="cls-1" d="M114.14,16.32A32.17,32.17,0,0,0,100.26,4.23,48.19,48.19,0,0,0,79.46,0H37.38l0,16.61a28.27,28.27,0,0,1,5.21.62,17.54,17.54,0,0,1,6.31,2.9C48.31,21,47.78,22,47.28,23a26.68,26.68,0,0,0-2.84,11.79,36.45,36.45,0,0,0,4.88,18.9A33.54,33.54,0,0,0,62.7,66.51a39.68,39.68,0,0,0,19,4.53,39.88,39.88,0,0,0,19-4.53,33.89,33.89,0,0,0,13.44-12.79,36.18,36.18,0,0,0,4.92-18.9A34.12,34.12,0,0,0,114.14,16.32ZM98.42,45.12A17.89,17.89,0,0,1,91.5,52a20.9,20.9,0,0,1-19.6,0A17.79,17.79,0,0,1,65,45.12a20.57,20.57,0,0,1-2.54-10.4A20.42,20.42,0,0,1,65,24.28a17.68,17.68,0,0,1,7-6.87A19.86,19.86,0,0,1,81.65,15a20.33,20.33,0,0,1,9.8,2.39,17.38,17.38,0,0,1,7,6.87A20.8,20.8,0,0,1,101,34.72,20.57,20.57,0,0,1,98.42,45.12Z"/><path class="cls-2" d="M4.92,54.72A32.17,32.17,0,0,0,18.8,66.81,48.19,48.19,0,0,0,39.6,71H81.68l0-16.62a27.84,27.84,0,0,1-5.21-.61,17.71,17.71,0,0,1-6.31-2.9Q71,49.55,71.78,48a26.68,26.68,0,0,0,2.84-11.79,36.5,36.5,0,0,0-4.88-18.9A33.59,33.59,0,0,0,56.36,4.53,39.68,39.68,0,0,0,37.41,0a39.88,39.88,0,0,0-19,4.53A34,34,0,0,0,4.92,17.31,36.24,36.24,0,0,0,0,36.21,34.16,34.16,0,0,0,4.92,54.72Zm15.72-28.8a18,18,0,0,1,6.92-6.87,20,20,0,0,1,9.85-2.44,19.76,19.76,0,0,1,9.75,2.44,17.89,17.89,0,0,1,6.91,6.87,20.54,20.54,0,0,1,2.54,10.39A20.46,20.46,0,0,1,54,46.76a17.72,17.72,0,0,1-7,6.86A19.75,19.75,0,0,1,37.41,56a20.22,20.22,0,0,1-9.8-2.39,17.42,17.42,0,0,1-7-6.86,20.84,20.84,0,0,1-2.53-10.45A20.53,20.53,0,0,1,20.64,25.92Z"/><path class="cls-3" d="M81.71,54.42h-.06A21.82,21.82,0,0,1,77.39,54c-.31-.06-.61-.12-.89-.19a17.71,17.71,0,0,1-6.31-2.9h0A17.78,17.78,0,0,1,65,45.12a20.57,20.57,0,0,1-2.54-10.4A20.42,20.42,0,0,1,65,24.28a17.81,17.81,0,0,1,5.32-5.84c-.21-.38-.4-.76-.62-1.13A33.59,33.59,0,0,0,56.36,4.53,39.68,39.68,0,0,0,37.41,0h0l0,16.61h.06a21.07,21.07,0,0,1,4.26.43c.31.05.61.12.89.19a17.54,17.54,0,0,1,6.31,2.9h0a17.86,17.86,0,0,1,5.2,5.78,20.54,20.54,0,0,1,2.54,10.39A20.46,20.46,0,0,1,54,46.76,17.81,17.81,0,0,1,48.7,52.6c.21.37.4.76.62,1.12A33.54,33.54,0,0,0,62.7,66.51a39.68,39.68,0,0,0,19,4.53h0Z"/><path class="cls-3" d="M144.08,31.37a15,15,0,0,1-6.52-5.68A16,16,0,0,1,135.25,17a17,17,0,0,1,2.31-8.87,15.77,15.77,0,0,1,6.31-6,19.74,19.74,0,0,1,17.84,0,15.63,15.63,0,0,1,6.28,6A17.06,17.06,0,0,1,170.28,17,12.5,12.5,0,0,1,169,22.54a13,13,0,0,1-3.29,4.37h5.46v6.44H153.84A22.65,22.65,0,0,1,144.08,31.37Zm13.26-6.19A8.36,8.36,0,0,0,160.61,22a9.67,9.67,0,0,0,1.22-4.91,9.69,9.69,0,0,0-1.19-4.88A8.38,8.38,0,0,0,157.39,9a9.77,9.77,0,0,0-9.2,0,8.31,8.31,0,0,0-3.25,3.22,9.69,9.69,0,0,0-1.19,4.88A9.86,9.86,0,0,0,144.94,22a8.11,8.11,0,0,0,3.27,3.22,9.49,9.49,0,0,0,4.6,1.12A9.27,9.27,0,0,0,157.34,25.18Z"/><path class="cls-3" d="M200.23,7.29V33.35h-8V29.8a8.69,8.69,0,0,1-3.3,2.78,10,10,0,0,1-4.6,1.05,10.3,10.3,0,0,1-5.28-1.33,9,9,0,0,1-3.55-3.85,13.12,13.12,0,0,1-1.26-5.93V7.29h7.94V21.44a5.75,5.75,0,0,0,1.36,4.07A4.76,4.76,0,0,0,187.19,27a4.81,4.81,0,0,0,3.69-1.44,5.7,5.7,0,0,0,1.36-4.07V7.29Z"/><path class="cls-3" d="M205.9,13.22A11.3,11.3,0,0,1,210,8.55a10.79,10.79,0,0,1,5.84-1.64A10,10,0,0,1,220.71,8a8.15,8.15,0,0,1,3.2,2.94V7.29h8V33.35h-8V29.66a8.61,8.61,0,0,1-3.25,2.95,10.07,10.07,0,0,1-4.83,1.12A10.54,10.54,0,0,1,210,32.07a11.45,11.45,0,0,1-4.14-4.72,15.76,15.76,0,0,1-1.52-7.08A15.6,15.6,0,0,1,205.9,13.22Zm16.35,2.38a5.6,5.6,0,0,0-8.08,0,6.43,6.43,0,0,0-1.66,4.69A6.61,6.61,0,0,0,214.17,25a5.56,5.56,0,0,0,8.08,0,6.52,6.52,0,0,0,1.66-4.72A6.54,6.54,0,0,0,222.25,15.6Z"/><path class="cls-3" d="M260.88,10q2.75,3,2.74,8.16V33.35h-7.94V19.2a5.72,5.72,0,0,0-1.36-4.06,5.31,5.31,0,0,0-7.29,0,5.72,5.72,0,0,0-1.35,4.06V33.35h-8V7.29h8v3.45A8.45,8.45,0,0,1,249,8a10.38,10.38,0,0,1,4.62-1A9.48,9.48,0,0,1,260.88,10Z"/><path class="cls-3" d="M283.7,26.58v6.77h-4.06a9.92,9.92,0,0,1-6.77-2.12q-2.43-2.13-2.43-6.94V13.92h-3.18V7.29h3.18V.93h8V7.29h5.23v6.63h-5.23V24.39a2.18,2.18,0,0,0,.56,1.68,2.72,2.72,0,0,0,1.86.51Z"/><path class="cls-3" d="M313.88,7.29V33.35h-8V29.8a8.73,8.73,0,0,1-3.29,2.78,10.07,10.07,0,0,1-4.6,1.05,10.25,10.25,0,0,1-5.28-1.33,8.9,8.9,0,0,1-3.55-3.85,13.12,13.12,0,0,1-1.26-5.93V7.29h7.94V21.44a5.75,5.75,0,0,0,1.35,4.07A4.78,4.78,0,0,0,300.85,27a4.84,4.84,0,0,0,3.69-1.44,5.75,5.75,0,0,0,1.35-4.07V7.29Z"/><path class="cls-3" d="M360.62,10q2.86,2.94,2.87,8.18V33.35h-7.94V19.2a5.38,5.38,0,0,0-1.33-3.9,5.57,5.57,0,0,0-7.34,0,5.42,5.42,0,0,0-1.33,3.9V33.35h-7.94V19.2a5.38,5.38,0,0,0-1.33-3.9,5.56,5.56,0,0,0-7.33,0,5.38,5.38,0,0,0-1.33,3.9V33.35h-8V7.29h8v3.27A8.35,8.35,0,0,1,330.79,8a10,10,0,0,1,4.44-1,10.85,10.85,0,0,1,5.26,1.26,9.09,9.09,0,0,1,3.62,3.6,10.46,10.46,0,0,1,3.69-3.51A10,10,0,0,1,352.89,7,10.32,10.32,0,0,1,360.62,10Z"/><path class="cls-4" d="M141.18,70a8.43,8.43,0,0,1-3.53-2.81A7,7,0,0,1,136.33,63h4a5.25,5.25,0,0,0,1.67,3.4,6,6,0,0,0,4.27,1.38,6.21,6.21,0,0,0,4.23-1.34A4.35,4.35,0,0,0,152.05,63a3.91,3.91,0,0,0-.91-2.69,5.73,5.73,0,0,0-2.27-1.56,34.26,34.26,0,0,0-3.67-1.16,32.13,32.13,0,0,1-4.56-1.49,7.29,7.29,0,0,1-2.93-2.33,6.85,6.85,0,0,1-1.22-4.27,7.39,7.39,0,0,1,1.2-4.17,7.81,7.81,0,0,1,3.36-2.8,11.87,11.87,0,0,1,5-1,10.41,10.41,0,0,1,6.62,2A7.46,7.46,0,0,1,155.56,49h-4.13a4.45,4.45,0,0,0-1.73-2.91,6.17,6.17,0,0,0-4-1.26A5.86,5.86,0,0,0,141.82,46a4.14,4.14,0,0,0-1.49,3.41,3.71,3.71,0,0,0,.89,2.56,5.68,5.68,0,0,0,2.18,1.5,37.5,37.5,0,0,0,3.66,1.18,33.85,33.85,0,0,1,4.58,1.55,7.71,7.71,0,0,1,3,2.35,6.82,6.82,0,0,1,1.24,4.31,7.49,7.49,0,0,1-1.12,4,8.16,8.16,0,0,1-3.3,3A10.91,10.91,0,0,1,146.27,71,12.17,12.17,0,0,1,141.18,70Z"/><path class="cls-4" d="M178.15,56.33q-2.44,2.37-7.49,2.37h-5.53v12h-3.75V42h9.28q4.88,0,7.41,2.35a8.49,8.49,0,0,1,.08,12Zm-2.86-2.08a5,5,0,0,0,1.48-3.88q0-5.32-6.11-5.33h-5.53V55.61h5.53A6.74,6.74,0,0,0,175.29,54.25Z"/><path class="cls-4" d="M202.28,64.32H189.73l-2.31,6.39h-4l10.4-28.6h4.33l10.36,28.6h-4Zm-1.08-3.06L196,46.73l-5.2,14.53Z"/><path class="cls-4" d="M216.85,42V70.71h-3.76V42Z"/><path class="cls-4" d="M245.86,70.71H242.1L227,47.81v22.9h-3.76V41.91H227l15.1,22.86V41.91h3.76Z"/></g></g></svg>