<svg id="Capa_1" data-name="Capa 1" xmlns="http://www.w3.org/2000/svg" viewBox="0 0 593.53 314.24"><defs><style>.cls-1,.cls-2{fill:#231f20;}.cls-1{fill-rule:evenodd;}.cls-3{fill:#00aeef;}</style></defs><title>res_logo_color</title><path class="cls-1" d="M193.05,387.9l-7.84-15c4.55-.78,7.48-3.92,7.48-8.76,0-5.67-4-8.72-9.31-8.72H171V387.9h2.46v-15h8.94l7.76,15Zm-2.82-23.73c0,4.47-3,6.58-7.16,6.58h-9.59V357.61h9.59C187.22,357.61,190.23,359.71,190.23,364.18Z" transform="translate(-124.07 -140.79)"/><polygon class="cls-1" points="104.85 247.11 104.85 244.92 87.6 244.92 87.6 231.82 102.28 231.82 102.28 229.65 87.6 229.65 87.6 216.82 104.85 216.82 104.85 214.63 85.14 214.63 85.14 247.11 104.85 247.11"/><path class="cls-1" d="M266.86,371.2c0-4.37.13-9.54-3.14-12.81a11.21,11.21,0,0,0-8.12-3H244.7V387.9h10.9a11.21,11.21,0,0,0,8.12-3C267,381.66,266.86,375.59,266.86,371.2Zm-2.46,0c0,3.61.18,9.36-2.43,12a9.32,9.32,0,0,1-7,2.51h-7.84v-28.1H255a9.32,9.32,0,0,1,7,2.51C264.58,362.76,264.4,367.6,264.4,371.2Z" transform="translate(-124.07 -140.79)"/><polygon class="cls-1" points="199.31 247.11 199.31 244.92 182.07 244.92 182.07 231.82 196.76 231.82 196.76 229.65 182.07 229.65 182.07 216.82 199.31 216.82 199.31 214.63 179.6 214.63 179.6 247.11 199.31 247.11"/><path class="cls-1" d="M358.23,379.2a7.94,7.94,0,0,0-2.84-6.3c-1.36-1.15-2.73-1.7-5.78-2.14l-3.52-.55a10.48,10.48,0,0,1-4.84-2,5.25,5.25,0,0,1-1.68-4.24c0-4.1,2.82-6.71,7.53-6.71a10.58,10.58,0,0,1,7.89,3l1.59-1.6a12.91,12.91,0,0,0-9.35-3.51c-6.2,0-10.09,3.46-10.09,8.89a7.42,7.42,0,0,0,2.56,6,11.15,11.15,0,0,0,5.8,2.36l3.79.6c2.64.41,3.51.73,4.7,1.73a5.93,5.93,0,0,1,1.78,4.57c0,4.24-3.24,6.71-8.36,6.71a11.36,11.36,0,0,1-9.22-3.84l-1.73,1.74c3,3,6,4.27,10.82,4.27C354,388.17,358.23,384.66,358.23,379.2Z" transform="translate(-124.07 -140.79)"/><path class="cls-1" d="M395.88,364.77c0-5.93-4.2-9.35-9.81-9.35H374.16V387.9h2.46V374.13h9.45C391.68,374.13,395.88,370.71,395.88,364.77Zm-2.48,0c0,4.89-3.14,7.16-7.61,7.16h-9.17V357.61h9.17C390.27,357.61,393.41,359.89,393.41,364.77Z" transform="translate(-124.07 -140.79)"/><path class="cls-1" d="M430.64,387.9,418.7,355.42H416.5L404.56,387.9h2.64L410,380h15.15L428,387.9Zm-6.25-10.09H410.8l6.8-19.11Z" transform="translate(-124.07 -140.79)"/><path class="cls-1" d="M463.21,349.44l-1.38-1.31c-1.36,1.36-2,1.5-2.69,1.5a4.73,4.73,0,0,1-2.54-.95,5.3,5.3,0,0,0-3.16-1.1c-.92,0-2,.1-4.06,2.19l1.36,1.31c1.41-1.41,2-1.49,2.7-1.49a5.2,5.2,0,0,1,2.56.95,5.78,5.78,0,0,0,3.14,1.1C460,351.63,461.12,351.55,463.21,349.44Zm5,38.47V355.42h-2.46v28.15L447,355.42h-2.46V387.9H447V359.67l18.76,28.23Z" transform="translate(-124.07 -140.79)"/><path class="cls-1" d="M507.46,371.67c0-7.36,0-10.22-3-13.19a11.57,11.57,0,0,0-16.23,0c-3,3-3,5.83-3,13.19s0,10.22,3,13.18a11.57,11.57,0,0,0,16.23,0C507.41,381.89,507.46,379,507.46,371.67Zm-2.47,0c0,7-.18,9.49-2.51,11.81a8.81,8.81,0,0,1-12.31,0c-2.32-2.33-2.51-4.84-2.51-11.81s.18-9.49,2.51-11.81a8.77,8.77,0,0,1,12.31,0C504.8,362.18,505,364.68,505,371.67Z" transform="translate(-124.07 -140.79)"/><polygon class="cls-1" points="420.06 247.11 420.06 244.92 402.82 244.92 402.82 214.63 400.36 214.63 400.36 247.11 420.06 247.11"/><path class="cls-1" d="M580.48,387.9l-12-32.48h-2.19L554.38,387.9H557l2.84-7.89H575l2.84,7.89Zm-6.25-10.09H560.63l6.8-19.11Z" transform="translate(-124.07 -140.79)"/><path class="cls-1" d="M636.39,371.2c0-4.37.13-9.54-3.15-12.81a11.15,11.15,0,0,0-8.11-3H614.21V387.9h10.92a11.15,11.15,0,0,0,8.11-3C636.53,381.66,636.39,375.59,636.39,371.2Zm-2.46,0c0,3.61.18,9.36-2.42,12a9.35,9.35,0,0,1-7,2.51h-7.84v-28.1h7.84a9.35,9.35,0,0,1,7,2.51C634.12,362.76,633.93,367.6,633.93,371.2Z" transform="translate(-124.07 -140.79)"/><polygon class="cls-1" points="549 247.11 549 244.92 531.77 244.92 531.77 231.82 546.44 231.82 546.44 229.65 531.77 229.65 531.77 216.82 549 216.82 549 214.63 529.29 214.63 529.29 247.11 549 247.11"/><path class="cls-1" d="M155.83,446a8,8,0,0,0-2.83-6.3c-1.38-1.15-2.74-1.68-5.8-2.14l-3.51-.55a10.31,10.31,0,0,1-4.85-2,5.23,5.23,0,0,1-1.68-4.24c0-4.1,2.83-6.71,7.53-6.71a10.52,10.52,0,0,1,7.89,3l1.59-1.61a12.86,12.86,0,0,0-9.35-3.51c-6.2,0-10.08,3.47-10.08,8.89a7.42,7.42,0,0,0,2.56,6,11.21,11.21,0,0,0,5.8,2.38l3.79.6c2.64.4,3.51.71,4.69,1.73a5.83,5.83,0,0,1,1.78,4.55c0,4.25-3.24,6.71-8.34,6.71A11.36,11.36,0,0,1,135.8,449l-1.73,1.74c3,3,6,4.29,10.82,4.29C151.63,455,155.83,451.51,155.83,446Z" transform="translate(-124.07 -140.79)"/><path class="cls-1" d="M193.55,444.21V422.27h-2.46V443.9c0,5.38-3.47,8.94-8.67,8.94s-8.66-3.56-8.66-8.94V422.27h-2.47v21.95c0,6.35,4.62,10.82,11.13,10.82S193.55,450.56,193.55,444.21Z" transform="translate(-124.07 -140.79)"/><path class="cls-1" d="M233.06,431.62c0-5.93-4.19-9.35-9.8-9.35H211.35v32.48h2.46V441h9.46C228.88,441,233.06,437.55,233.06,431.62Zm-2.46,0c0,4.89-3.16,7.16-7.63,7.16H213.8V424.46H223C227.45,424.46,230.6,426.74,230.6,431.62Z" transform="translate(-124.07 -140.79)"/><polygon class="cls-1" points="143.99 313.96 143.99 311.76 126.74 311.76 126.74 298.69 141.43 298.69 141.43 296.49 126.74 296.49 126.74 283.66 143.99 283.66 143.99 281.47 124.29 281.47 124.29 313.96 143.99 313.96"/><path class="cls-1" d="M305.87,454.75l-7.84-15c4.55-.78,7.47-3.92,7.47-8.76,0-5.67-4-8.72-9.3-8.72H283.83v32.48h2.47v-15h8.94l7.76,15ZM303,431c0,4.47-3,6.56-7.16,6.56H286.3V424.46h9.57C300,424.46,303,426.55,303,431Z" transform="translate(-124.07 -140.79)"/><path class="cls-1" d="M342.91,445.54h-2.43c-.95,4.47-4.24,7.29-8.62,7.29a8.59,8.59,0,0,1-6.15-2.51c-2.32-2.33-2.51-4.83-2.51-11.81s.18-9.49,2.51-11.81a8.59,8.59,0,0,1,6.15-2.51c4.39,0,7.58,2.82,8.54,7.29h2.51c-1-5.88-5.25-9.49-11.05-9.49a11.46,11.46,0,0,0-8.11,3.32c-3,3-3,5.85-3,13.19s0,10.22,3,13.18a11.47,11.47,0,0,0,8.11,3.34C337.58,455,341.86,451.43,342.91,445.54Z" transform="translate(-124.07 -140.79)"/><path class="cls-1" d="M380.58,438.52c0-7.34,0-10.22-3-13.19a11.59,11.59,0,0,0-16.25,0c-3,3-3,5.85-3,13.19s.05,10.22,3,13.18a11.55,11.55,0,0,0,16.25,0C380.53,448.73,380.58,445.86,380.58,438.52Zm-2.46,0c0,7-.18,9.49-2.51,11.81a8.81,8.81,0,0,1-12.31,0c-2.33-2.33-2.53-4.83-2.53-11.81s.2-9.49,2.53-11.81a8.8,8.8,0,0,1,12.31,0C377.94,429,378.12,431.54,378.12,438.52Z" transform="translate(-124.07 -140.79)"/><polygon class="cls-1" points="300.76 313.96 300.76 281.47 298.3 281.47 287.25 306.53 275.95 281.47 273.48 281.47 273.48 313.96 275.95 313.96 275.95 287.19 285.98 309.4 288.45 309.4 298.3 287.19 298.3 313.96 300.76 313.96"/><path class="cls-1" d="M464.79,431.62c0-5.93-4.19-9.35-9.8-9.35H443.07v32.48h2.48V441H455C460.6,441,464.79,437.55,464.79,431.62Zm-2.46,0c0,4.89-3.16,7.16-7.62,7.16h-9.16V424.46h9.16C459.17,424.46,462.33,426.74,462.33,431.62Z" transform="translate(-124.07 -140.79)"/><path class="cls-1" d="M501.87,444.21V422.27h-2.46V443.9c0,5.38-3.47,8.94-8.67,8.94s-8.66-3.56-8.66-8.94V422.27h-2.47v21.95c0,6.35,4.62,10.82,11.13,10.82S501.87,450.56,501.87,444.21Z" transform="translate(-124.07 -140.79)"/><polygon class="cls-1" points="413.83 283.66 413.83 281.47 391.98 281.47 391.98 283.66 401.65 283.66 401.65 313.96 404.11 313.96 404.11 283.66 413.83 283.66"/><path class="cls-1" d="M571.51,454.75l-11.95-32.48h-2.19l-11.95,32.48h2.64l2.83-7.89H566l2.83,7.89Zm-6.25-10.07H551.67l6.8-19.13Z" transform="translate(-124.07 -140.79)"/><path class="cls-1" d="M605.87,445.54h-2.42c-.95,4.47-4.24,7.29-8.61,7.29a8.58,8.58,0,0,1-6.17-2.51c-2.33-2.33-2.51-4.83-2.51-11.81s.18-9.49,2.51-11.81a8.57,8.57,0,0,1,6.17-2.51c4.37,0,7.56,2.82,8.52,7.29h2.51c-1-5.88-5.25-9.49-11-9.49a11.44,11.44,0,0,0-8.13,3.32c-3,3-3,5.85-3,13.19s.05,10.22,3,13.18a11.45,11.45,0,0,0,8.13,3.34C600.54,455,604.83,451.43,605.87,445.54Z" transform="translate(-124.07 -140.79)"/><rect class="cls-2" x="498.49" y="281.47" width="2.46" height="32.48"/><path class="cls-1" d="M658.46,412.46H655.4L651,419.18h2.66Zm5.8,26.05c0-7.34,0-10.22-3-13.19a11.58,11.58,0,0,0-16.24,0c-3,3-3,5.85-3,13.19s0,10.22,3,13.18a11.54,11.54,0,0,0,16.24,0C664.21,448.73,664.26,445.86,664.26,438.52Zm-2.48,0c0,7-.18,9.49-2.51,11.81a8.81,8.81,0,0,1-12.31,0c-2.33-2.33-2.51-4.83-2.51-11.81s.18-9.49,2.51-11.81a8.8,8.8,0,0,1,12.31,0C661.6,429,661.79,431.54,661.79,438.52Z" transform="translate(-124.07 -140.79)"/><polygon class="cls-1" points="580.84 313.96 580.84 281.47 578.36 281.47 578.36 309.62 559.62 281.47 557.16 281.47 557.16 313.96 559.62 313.96 559.62 285.73 578.36 313.96 580.84 313.96"/><path class="cls-3" d="M633.47,140.79a84,84,0,0,0-72,40.66h0c-7.11,12-19.81,20.1-34.29,20.1-14.29,0-27-8-34.1-19.8a84.15,84.15,0,0,0-144.27-.28v0c-7.09,12-19.77,20.1-34.24,20.1s-26.9-7.91-34-19.67a84.13,84.13,0,1,0-.2,86.43v0a39.65,39.65,0,0,1,68.49.12v-.07A84.15,84.15,0,0,0,493,268.17a39.71,39.71,0,0,1,68.24-.1,84.13,84.13,0,1,0,72.23-127.28Zm-406.37,128-18.43-36.82H192.09v36.82H178.83V181.34h33.9c16.58,0,27.13,10.68,27.13,25.54,0,12.53-7.61,20.5-17.43,23.21l20.14,38.66Zm221.64-75.47h-42.6v25.54h36.34V230.6H406.13v26.27h42.6v11.91H392.88V181.37h55.86Zm184.48,76.25c-13.13,0-22.6-3.06-30.94-11.53l8.84-8.72c6.38,6.38,13.39,8.36,22.35,8.36,11.41,0,18-4.92,18-13.39,0-3.8-1.1-7-3.44-9.09s-4.42-2.94-9.57-3.67L628.19,230c-7.11-1-12.76-3.44-16.56-7-4.31-4.06-6.4-9.59-6.4-16.7,0-15.24,11.05-25.67,29.23-25.67,11.55,0,19.66,2.94,27.13,10l-8.47,8.34c-5.4-5.15-11.67-6.74-19-6.74-10.32,0-16,5.88-16,13.62a10.44,10.44,0,0,0,3.32,8.11,19.54,19.54,0,0,0,9.82,4.05l9.94,1.46c8.11,1.23,12.66,3.19,16.33,6.51,4.8,4.17,7.13,10.43,7.13,17.93C664.66,260,651.52,269.53,633.22,269.53ZM226.6,207c0-8.61-6-13.76-14.85-13.76H192.09v27.38h19.66C220.59,220.63,226.6,215.6,226.6,207Z" transform="translate(-124.07 -140.79)"/></svg>