<svg width="1920" height="1080" viewBox="0 0 1920 1080" fill="none" xmlns="http://www.w3.org/2000/svg">
<path fill-rule="evenodd" clip-rule="evenodd" d="M1492.56 587.86C1491.6 586.9 1490.64 585.935 1489.68 584.971L1489.67 584.966C1489.73 584.863 1489.78 584.766 1489.84 584.672C1489.93 584.5 1490.02 584.34 1490.11 584.185C1493.02 579.192 1494.6 573.787 1494.7 568.025C1494.83 560.935 1494.81 553.84 1494.75 546.745C1494.72 544.642 1494.47 542.505 1494.08 540.436C1491.02 524.488 1477.09 512.378 1460.85 511.753C1454.52 511.513 1448.17 511.583 1441.83 511.652L1441.83 511.652C1440.95 511.662 1440.07 511.672 1439.19 511.68C1436.92 511.703 1434.61 511.948 1432.39 512.439C1424.51 514.174 1417.86 518.09 1412.59 524.248C1407.5 530.205 1404.5 537.1 1404.22 544.926C1403.94 552.702 1403.87 560.5 1404.17 568.276C1404.6 579.293 1409.46 588.223 1418.17 594.967C1424.04 599.508 1430.76 602.018 1438.19 602.23C1444.91 602.422 1451.62 602.384 1458.34 602.347L1459.24 602.342C1462.96 602.319 1466.65 601.784 1470.16 600.49C1471.83 599.877 1473.46 599.174 1475.19 598.428C1476.03 598.067 1476.89 597.696 1477.78 597.321C1478.75 598.291 1479.73 599.282 1480.72 600.278L1481.24 600.803L1481.53 601.099L1481.74 601.31C1483.1 602.681 1484.46 604.05 1485.77 605.37L1497.97 593.305C1496.19 591.518 1494.38 589.696 1492.56 587.86ZM1464.12 584.247C1464.1 584.313 1464.07 584.38 1464.04 584.447C1463.35 584.507 1462.66 584.581 1461.97 584.655L1461.97 584.655L1461.97 584.655L1461.97 584.655C1460.48 584.815 1458.99 584.975 1457.5 584.994C1453.01 585.055 1448.53 585.041 1444.04 585.026C1442.82 585.022 1441.59 585.018 1440.37 585.016C1435.76 585.005 1431.57 583.677 1428.05 580.687C1423.98 577.229 1421.61 572.766 1421.48 567.4C1421.31 560.64 1421.27 553.868 1421.45 547.107C1421.73 536.988 1429.11 529.464 1439.35 529.062C1446.35 528.783 1453.38 528.833 1460.38 529.123C1469.62 529.508 1477.24 537.535 1477.37 546.778C1477.46 553.071 1477.39 559.369 1477.33 565.667V565.667V565.668C1477.32 566.543 1477.31 567.418 1477.3 568.293C1477.29 569.045 1477.14 569.795 1476.97 570.62C1476.88 571.018 1476.8 571.433 1476.72 571.874C1476.57 571.735 1476.43 571.617 1476.31 571.511L1476.31 571.509L1476.31 571.509C1476.07 571.303 1475.89 571.141 1475.71 570.965C1472.86 568.124 1470.02 565.283 1467.17 562.436L1467.14 562.408C1467.12 562.386 1467.1 562.365 1467.08 562.343L1467.05 562.313L1467.05 562.311C1466.68 561.931 1466.35 561.588 1465.76 562.185C1463.1 564.858 1460.43 567.52 1457.73 570.216C1456.52 571.424 1455.31 572.639 1454.08 573.865C1455.7 575.501 1457.32 577.124 1458.93 578.74L1459.01 578.827C1460.75 580.572 1462.47 582.308 1464.2 584.045C1464.17 584.112 1464.15 584.18 1464.12 584.247ZM1196.71 511.642H1195.13V602.219C1195.25 602.227 1195.36 602.238 1195.45 602.248L1195.46 602.248L1195.46 602.248L1195.46 602.248L1195.46 602.248C1195.62 602.265 1195.77 602.28 1195.92 602.28C1201.01 602.28 1206.1 602.288 1211.19 602.296C1223.77 602.316 1236.35 602.335 1248.93 602.236C1260.72 602.147 1269.59 593.623 1270.14 582.071C1270.35 577.642 1270.24 573.185 1270.13 568.745C1270.04 565.259 1269.03 561.967 1267.09 559.067C1266.21 557.748 1265.19 556.525 1264.21 555.354L1264.21 555.354L1264.21 555.353L1264.21 555.353C1263.79 554.85 1263.38 554.356 1262.99 553.868C1263.14 553.218 1263.32 552.57 1263.5 551.921C1263.89 550.486 1264.29 549.05 1264.37 547.598C1264.61 543.27 1264.61 538.923 1264.61 534.579V534.579V534.579C1264.61 534.153 1264.61 533.727 1264.62 533.302C1264.63 520.846 1255.42 511.642 1242.99 511.642H1196.71ZM1212.57 584.76V566.408H1213.99H1248.25C1251.5 566.413 1252.8 567.73 1252.8 571.021C1252.81 571.565 1252.81 572.108 1252.81 572.652V572.654V572.655C1252.81 575.373 1252.82 578.091 1252.8 580.805C1252.79 583.27 1251.33 584.81 1248.86 584.815C1240.2 584.836 1231.54 584.832 1222.88 584.829H1222.88H1222.88C1219.63 584.828 1216.38 584.827 1213.13 584.827C1213.03 584.827 1212.93 584.812 1212.82 584.794L1212.82 584.794L1212.82 584.794L1212.82 584.794C1212.74 584.783 1212.66 584.77 1212.57 584.76ZM1212.53 548.803V529.023H1213.78H1242.43C1245.85 529.023 1247.18 530.345 1247.18 533.742C1247.18 537.413 1247.19 541.083 1247.18 544.753C1247.16 547.358 1245.78 548.853 1243.23 548.859C1236.48 548.874 1229.73 548.869 1222.98 548.864C1219.61 548.861 1216.24 548.859 1212.86 548.859C1212.81 548.859 1212.75 548.848 1212.66 548.829L1212.66 548.829L1212.66 548.829C1212.63 548.822 1212.58 548.813 1212.53 548.803ZM1338.51 576.398C1338.51 578.326 1338.51 580.254 1338.51 582.181V582.182C1338.5 588.446 1338.5 594.709 1338.54 600.975C1338.54 602.052 1338.27 602.342 1337.18 602.336C1328.21 602.306 1319.24 602.302 1310.26 602.297H1310.26C1305.77 602.294 1301.28 602.292 1296.8 602.286C1287.36 602.275 1279.57 596.769 1276.64 588.106C1275.28 584.073 1275.38 579.895 1275.62 575.762C1276.2 566.034 1282.23 558.838 1291.69 556.506C1293.37 556.094 1295.16 556.027 1296.91 556.016C1302.33 555.98 1307.75 555.987 1313.17 555.993C1315.33 555.996 1317.5 555.999 1319.67 555.999C1321.07 555.999 1321.2 555.848 1321.14 554.454C1321.01 551.062 1319.8 548.295 1316.44 547.001C1315.31 546.561 1313.98 546.438 1312.74 546.432C1306.53 546.399 1300.32 546.403 1294.11 546.407C1292.04 546.409 1289.97 546.41 1287.9 546.41C1286.84 546.41 1286.32 545.869 1286.32 544.787C1286.32 543.452 1286.33 542.117 1286.33 540.782V540.781V540.78C1286.34 537.305 1286.35 533.829 1286.32 530.356C1286.31 529.296 1286.6 528.951 1287.7 528.956C1291.76 528.975 1295.83 528.972 1299.89 528.969H1299.89C1304.43 528.966 1308.98 528.963 1313.52 528.99C1324.85 529.062 1333.91 535.583 1337.37 546.332C1338.12 548.692 1338.41 551.285 1338.45 553.779C1338.55 559.199 1338.54 564.622 1338.52 570.047C1338.51 572.164 1338.5 574.281 1338.5 576.398H1338.51ZM1308.18 571.294V571.305C1307.04 571.305 1305.9 571.304 1304.77 571.302H1304.77C1302.11 571.299 1299.46 571.295 1296.81 571.311C1294.34 571.327 1293.15 572.538 1293.13 575.009C1293.11 577.129 1293.09 579.243 1293.14 581.363C1293.2 583.599 1294.44 584.838 1296.68 584.843C1300.51 584.857 1304.34 584.857 1308.17 584.857C1312 584.857 1315.83 584.857 1319.66 584.871C1320.56 584.871 1320.87 584.603 1320.86 583.677C1320.81 579.929 1320.8 576.186 1320.85 572.438C1320.86 571.5 1320.57 571.261 1319.67 571.272C1316.9 571.304 1314.14 571.298 1311.37 571.293C1310.31 571.291 1309.24 571.288 1308.18 571.288V571.294ZM1365.49 584.892C1364.22 584.89 1362.94 584.888 1361.66 584.888L1361.66 584.877V584.944C1360.37 584.944 1359.08 584.946 1357.79 584.947C1354.19 584.953 1350.58 584.958 1346.97 584.921C1345.87 584.91 1345.49 585.206 1345.51 586.355C1345.57 591.169 1345.57 595.977 1345.51 600.785C1345.49 601.99 1345.89 602.292 1347.05 602.286C1351.42 602.266 1355.79 602.265 1360.16 602.264C1364.19 602.264 1368.22 602.263 1372.26 602.247C1375.98 602.23 1379.66 601.856 1383.25 600.791C1387.21 599.62 1390.86 597.879 1393.77 594.867C1397.41 591.091 1399.12 586.478 1399.47 581.312C1399.81 576.376 1398.72 571.846 1395.54 567.941C1393.15 564.996 1390.02 563.005 1386.65 561.426C1381.51 559.017 1376.14 557.265 1370.6 555.999C1368.8 555.586 1367 554.894 1365.41 553.963C1363.35 552.747 1363.23 549.188 1365.14 547.989C1366.17 547.342 1367.45 546.784 1368.64 546.739C1373.31 546.57 1377.98 546.556 1382.65 546.542C1383.08 546.541 1383.5 546.54 1383.93 546.538C1384.87 546.538 1385.22 546.293 1385.21 545.306C1385.17 540.296 1385.18 535.282 1385.21 530.267C1385.21 529.386 1384.94 529.045 1384.01 529.056C1382.53 529.074 1381.05 529.064 1379.57 529.054C1377.25 529.039 1374.94 529.024 1372.63 529.112C1369.59 529.229 1366.53 529.48 1363.54 529.999C1359.41 530.713 1355.72 532.532 1352.59 535.337C1347.41 539.978 1345.34 545.858 1345.65 552.741C1345.95 559.318 1348.83 564.327 1354.32 567.88C1358.31 570.469 1362.78 571.872 1367.26 573.278L1367.46 573.341C1370.68 574.351 1373.91 575.366 1377.06 576.582C1378.3 577.067 1379.5 577.937 1380.43 578.914C1381.94 580.526 1381.74 583.516 1379.2 584.269C1379.13 584.289 1379.06 584.31 1378.99 584.33C1378.12 584.586 1377.23 584.85 1376.35 584.86C1372.73 584.905 1369.11 584.899 1365.49 584.892Z" fill="url(#paint0_linear_532_66)"/>
<path d="M906.849 564.389C908.368 564.389 909.775 564.68 911.071 565.261C912.412 565.841 913.573 566.623 914.556 567.606C915.539 568.589 916.321 569.751 916.902 571.091C917.483 572.387 917.773 573.772 917.773 575.246V597.899C917.773 598.614 917.527 599.217 917.036 599.709C916.544 600.2 915.964 600.446 915.293 600.446H899.209C897.69 600.446 896.26 600.155 894.919 599.575C893.624 598.994 892.484 598.212 891.501 597.229C890.518 596.246 889.737 595.107 889.156 593.811C888.575 592.471 888.284 591.041 888.284 589.522C888.284 588.003 888.575 586.595 889.156 585.299C889.737 583.959 890.518 582.797 891.501 581.814C892.484 580.831 893.624 580.05 894.919 579.469C896.26 578.888 897.69 578.597 899.209 578.597H912.747V575.246C912.747 573.638 912.166 572.253 911.004 571.091C909.887 569.93 908.502 569.349 906.849 569.349H892.842C892.127 569.349 891.524 569.103 891.032 568.612C890.541 568.12 890.295 567.539 890.295 566.869C890.295 566.154 890.541 565.573 891.032 565.126C891.524 564.635 892.127 564.389 892.842 564.389H906.849ZM912.747 583.624H899.209C897.555 583.624 896.148 584.205 894.986 585.366C893.869 586.483 893.311 587.868 893.311 589.522C893.311 591.13 893.869 592.515 894.986 593.677C896.148 594.839 897.555 595.419 899.209 595.419H912.747V583.624ZM945.241 575.313C945.241 573.794 945.531 572.387 946.112 571.091C946.693 569.751 947.475 568.589 948.458 567.606C949.441 566.623 950.58 565.841 951.876 565.261C953.216 564.68 954.646 564.389 956.165 564.389H964.609C966.084 564.389 967.469 564.68 968.765 565.261C970.105 565.841 971.267 566.646 972.25 567.673C973.233 568.656 973.992 569.818 974.528 571.158C975.109 572.454 975.4 573.839 975.4 575.313V589.522C975.4 591.041 975.109 592.471 974.528 593.811C973.947 595.107 973.166 596.246 972.183 597.229C971.2 598.212 970.038 598.994 968.698 599.575C967.402 600.155 965.994 600.446 964.475 600.446H956.031C954.959 600.446 953.931 600.289 952.948 599.977C952.01 599.664 951.116 599.24 950.267 598.703V613.448C950.267 614.118 950.021 614.699 949.53 615.19C949.038 615.682 948.435 615.927 947.72 615.927C947.05 615.927 946.469 615.682 945.978 615.19C945.486 614.699 945.241 614.118 945.241 613.448V575.313ZM950.267 589.522C950.267 591.175 950.826 592.582 951.943 593.744C953.104 594.861 954.512 595.419 956.165 595.419H964.475C966.129 595.419 967.514 594.861 968.631 593.744C969.792 592.582 970.373 591.175 970.373 589.522V575.313C970.373 573.66 969.792 572.275 968.631 571.158C967.514 569.997 966.129 569.416 964.475 569.416H956.165C954.512 569.416 953.104 569.997 951.943 571.158C950.826 572.275 950.267 573.66 950.267 575.313V589.522ZM1000.64 564.389C1002.16 564.389 1003.56 564.68 1004.86 565.261C1006.2 565.841 1007.36 566.623 1008.34 567.606C1009.33 568.589 1010.11 569.751 1010.69 571.091C1011.27 572.387 1011.56 573.772 1011.56 575.246V597.899C1011.56 598.614 1011.32 599.217 1010.82 599.709C1010.33 600.2 1009.75 600.446 1009.08 600.446H992.997C991.478 600.446 990.048 600.155 988.708 599.575C987.412 598.994 986.273 598.212 985.29 597.229C984.307 596.246 983.525 595.107 982.944 593.811C982.363 592.471 982.073 591.041 982.073 589.522C982.073 588.003 982.363 586.595 982.944 585.299C983.525 583.959 984.307 582.797 985.29 581.814C986.273 580.831 987.412 580.05 988.708 579.469C990.048 578.888 991.478 578.597 992.997 578.597H1006.53V575.246C1006.53 573.638 1005.95 572.253 1004.79 571.091C1003.68 569.93 1002.29 569.349 1000.64 569.349H986.63C985.915 569.349 985.312 569.103 984.821 568.612C984.329 568.12 984.083 567.539 984.083 566.869C984.083 566.154 984.329 565.573 984.821 565.126C985.312 564.635 985.915 564.389 986.63 564.389H1000.64ZM1006.53 583.624H992.997C991.344 583.624 989.936 584.205 988.775 585.366C987.658 586.483 987.099 587.868 987.099 589.522C987.099 591.13 987.658 592.515 988.775 593.677C989.936 594.839 991.344 595.419 992.997 595.419H1006.53V583.624ZM1037.63 564.389C1038.3 564.389 1038.89 564.635 1039.38 565.126C1039.87 565.573 1040.11 566.154 1040.11 566.869C1040.11 567.539 1039.87 568.12 1039.38 568.612C1038.89 569.103 1038.3 569.349 1037.63 569.349H1029.73C1028.12 569.393 1026.76 569.997 1025.64 571.158C1024.52 572.275 1023.96 573.638 1023.96 575.246V597.899C1023.96 598.614 1023.72 599.217 1023.23 599.709C1022.73 600.2 1022.13 600.446 1021.42 600.446C1020.75 600.446 1020.16 600.2 1019.67 599.709C1019.18 599.217 1018.94 598.614 1018.94 597.899V575.246C1018.94 573.772 1019.2 572.387 1019.74 571.091C1020.32 569.751 1021.1 568.589 1022.09 567.606C1023.07 566.623 1024.21 565.841 1025.5 565.261C1026.84 564.68 1028.25 564.389 1029.73 564.389H1037.63ZM1064.64 595.419C1065.31 595.419 1065.89 595.665 1066.38 596.157C1066.87 596.648 1067.12 597.251 1067.12 597.966C1067.12 598.636 1066.87 599.217 1066.38 599.709C1065.89 600.2 1065.31 600.446 1064.64 600.446H1063.43C1061.91 600.446 1060.48 600.155 1059.14 599.575C1057.85 598.994 1056.71 598.212 1055.72 597.229C1054.74 596.246 1053.96 595.107 1053.38 593.811C1052.8 592.471 1052.51 591.041 1052.51 589.522V569.416H1047.61C1046.94 569.416 1046.36 569.17 1045.87 568.679C1045.38 568.187 1045.13 567.584 1045.13 566.869C1045.13 566.199 1045.38 565.618 1045.87 565.126C1046.36 564.635 1046.94 564.389 1047.61 564.389H1052.51V557.687C1052.51 557.017 1052.75 556.436 1053.24 555.945C1053.73 555.453 1054.34 555.208 1055.05 555.208C1055.72 555.208 1056.3 555.453 1056.8 555.945C1057.29 556.436 1057.53 557.017 1057.53 557.687V564.389H1064.5C1065.17 564.389 1065.73 564.635 1066.18 565.126C1066.67 565.573 1066.92 566.132 1066.92 566.802V566.869C1066.92 567.584 1066.67 568.187 1066.18 568.679C1065.69 569.17 1065.11 569.416 1064.44 569.416H1057.53V589.522C1057.53 591.175 1058.09 592.582 1059.21 593.744C1060.37 594.861 1061.78 595.419 1063.43 595.419H1064.64ZM1113.85 564.389C1115.36 564.389 1116.77 564.68 1118.07 565.261C1119.41 565.841 1120.57 566.623 1121.55 567.606C1122.54 568.589 1123.32 569.751 1123.9 571.091C1124.48 572.387 1124.77 573.772 1124.77 575.246V589.522C1124.77 590.996 1124.48 592.403 1123.9 593.744C1123.36 595.04 1122.6 596.201 1121.62 597.229C1120.64 598.212 1119.48 598.994 1118.13 599.575C1116.84 600.155 1115.45 600.446 1113.98 600.446H1104.86C1103.35 600.446 1101.92 600.155 1100.58 599.575C1099.28 598.994 1098.14 598.212 1097.16 597.229C1096.17 596.246 1095.39 595.107 1094.81 593.811C1094.23 592.471 1093.94 591.041 1093.94 589.522V575.246C1093.94 573.772 1094.21 572.387 1094.74 571.091C1095.33 569.751 1096.11 568.589 1097.09 567.606C1098.07 566.623 1099.21 565.841 1100.51 565.261C1101.85 564.68 1103.26 564.389 1104.73 564.389H1113.85ZM1119.74 575.246C1119.74 573.638 1119.16 572.253 1118 571.091C1116.88 569.93 1115.5 569.349 1113.85 569.349H1104.86C1103.21 569.349 1101.8 569.93 1100.64 571.091C1099.53 572.253 1098.97 573.638 1098.97 575.246V589.522C1098.97 591.13 1099.53 592.515 1100.64 593.677C1101.8 594.839 1103.21 595.419 1104.86 595.419H1113.85C1115.5 595.419 1116.88 594.839 1118 593.677C1119.16 592.515 1119.74 591.13 1119.74 589.522V575.246ZM1148.27 564.389C1148.99 564.389 1149.59 564.635 1150.08 565.126C1150.57 565.618 1150.82 566.199 1150.82 566.869C1150.82 567.584 1150.57 568.187 1150.08 568.679C1149.59 569.17 1148.99 569.416 1148.27 569.416H1141.57V597.966C1141.57 598.636 1141.32 599.217 1140.83 599.709C1140.34 600.2 1139.76 600.446 1139.09 600.446C1138.37 600.446 1137.77 600.2 1137.28 599.709C1136.79 599.217 1136.54 598.636 1136.54 597.966V569.416H1131.65C1130.98 569.416 1130.4 569.17 1129.91 568.679C1129.42 568.187 1129.17 567.584 1129.17 566.869C1129.17 566.199 1129.42 565.618 1129.91 565.126C1130.4 564.635 1130.98 564.389 1131.65 564.389H1136.54V559.832C1136.54 558.313 1136.83 556.905 1137.41 555.61C1137.99 554.269 1138.78 553.108 1139.76 552.125C1140.74 551.142 1141.88 550.36 1143.18 549.779C1144.52 549.198 1145.95 548.908 1147.47 548.908H1148.94C1149.66 548.908 1150.26 549.153 1150.75 549.645C1151.24 550.136 1151.49 550.717 1151.49 551.387C1151.49 552.102 1151.24 552.705 1150.75 553.197C1150.26 553.688 1149.66 553.934 1148.94 553.934H1147.47C1145.81 553.934 1144.41 554.515 1143.24 555.677C1142.13 556.794 1141.57 558.179 1141.57 559.832V564.389H1148.27Z" fill="black"/>
<path d="M486.974 602.922C482.816 598.735 479.266 594.094 476.57 588.737C470.662 576.994 466.555 564.675 464.889 551.649C463.049 537.267 464.468 523.109 469.142 509.362C470.612 505.04 472.592 500.891 474.35 496.667C474.639 495.971 474.985 495.299 475.455 494.294C469.631 497.729 460.752 526.384 460.341 540.626C459.861 557.251 462.958 573.149 469.365 589.063C457 583.13 444.501 578.646 435.386 568.709C432.339 565.386 430.134 561.275 427.687 557.433C427.187 556.649 427.163 555.45 427.209 554.455C427.305 552.435 428.787 551.569 430.662 552.355C431.606 552.751 432.45 553.459 433.42 553.694C434.247 553.894 435.503 553.941 435.991 553.464C436.477 552.988 436.534 551.675 436.264 550.911C435.77 549.512 434.949 548.214 434.171 546.931C428.756 537.994 424.535 528.595 423.311 518.101C422.973 515.21 422.911 512.249 423.123 509.35C423.218 508.043 424.163 505.858 424.958 505.746C426.449 505.536 428.289 506.263 429.652 507.126C431.008 507.984 431.861 509.596 433.103 510.684C435.694 512.955 437.733 512.295 438.153 508.897C438.666 504.749 438.726 500.547 439.125 496.381C439.61 491.32 441.422 486.729 444.391 482.591C446.922 479.065 450.424 478.93 453.193 482.288C454.196 483.505 455.082 484.842 456.209 485.93C458.129 487.784 459.663 487.813 461.182 485.657C463.22 482.764 464.827 479.572 466.696 476.556C468.475 473.684 470.255 470.803 472.242 468.077C472.882 467.198 474.109 466.591 475.191 466.232C476.495 465.799 477.542 466.121 478.025 467.81C479.096 471.563 480.285 472.011 483.632 470.078C485.754 468.853 487.775 467.455 489.849 466.147C490.45 465.767 491.06 465.394 491.694 465.075C493.665 464.083 495.714 463.322 497.683 464.935C499.266 466.232 499.502 469.465 498.153 471.786C497.006 473.761 495.574 475.567 494.343 477.495C492.639 480.162 493.533 482.04 496.708 482.466C498.804 482.747 501.281 482.486 502.155 484.963C503.1 487.642 501.384 489.775 499.704 491.5C497.4 493.863 494.68 495.815 492.255 498.069C490.71 499.505 489.118 501.006 488.006 502.768C486.285 505.492 488.32 509.111 491.573 509.331C493.053 509.431 494.577 509.239 496.051 508.996C498.341 508.618 500.524 508.535 502.044 510.656C503.334 512.455 503.208 515.413 501.417 517.498C497.352 522.231 493.082 526.788 488.918 531.437C485.917 534.786 482.863 538.096 480.042 541.592C479.406 542.38 479.095 544.388 479.601 544.925C480.461 545.838 482.118 546.505 483.386 546.423C485.701 546.272 487.954 545.276 490.274 545.042C493.247 544.742 494.759 546.799 493.668 549.547C491.981 553.794 490.121 557.973 488.319 562.175C484.3 571.546 482.291 581.258 483.952 591.43C484.578 595.267 485.917 598.987 486.974 602.922Z" fill="#CC0200"/>
<path d="M864.426 514.858L849.681 600.333C849.303 602.541 848.295 603.45 846.279 603.45H836.575C834.433 603.45 833.551 602.801 833.047 601.112L814.396 543.566L804.692 600.333C804.314 602.541 803.432 603.45 801.415 603.45H791.334C789.191 603.45 788.309 602.541 788.687 600.333L803.306 514.988C803.558 512.91 804.566 512 806.708 512H816.412C818.428 512 819.436 512.52 820.067 514.209L838.592 571.884L848.295 514.988C848.547 512.91 849.555 512 851.572 512H861.653C863.67 512 864.678 512.91 864.426 514.858Z" fill="black"/>
<path d="M756.462 600.333L770.504 514.988C770.868 512.91 771.836 512 773.773 512H783.941C785.878 512 786.726 512.91 786.483 514.988L772.441 600.333C772.078 602.541 771.11 603.45 769.173 603.45H759.004C757.067 603.45 756.099 602.541 756.462 600.333Z" fill="black"/>
<path d="M704.995 568.507H725.22L722.462 529.017H722.068L704.995 568.507ZM717.34 512H732.443C735.07 512 735.858 513.04 735.989 514.988L744.919 600.073C745.182 602.021 744 603.45 742.03 603.45H730.604C728.503 603.45 727.715 602.541 727.452 600.592L725.876 583.316H699.216L691.468 600.592C690.548 602.541 689.76 603.45 687.659 603.45H675.708C673.607 603.45 672.687 602.021 673.607 600.073L712.875 514.988C713.794 513.04 714.582 512 717.34 512Z" fill="black"/>
<path d="M648.017 600.422C650.445 601.445 653.512 602.085 656.962 602.085C658.879 602.085 660.157 601.829 661.307 601.829C663.096 601.701 663.862 602.213 663.607 604.133L662.201 611.682C661.818 613.986 660.668 614.881 657.729 614.881C648.145 614.881 637.922 611.682 630.255 603.749C615.943 602.853 606.742 594.024 606.742 574.701C606.742 569.967 607.381 564.465 608.403 558.067C614.282 524.669 627.444 512 649.039 512C666.674 512 677.408 520.702 677.408 541.304C677.408 546.166 676.897 551.668 675.619 558.194C671.402 581.739 661.946 595.687 648.017 600.422ZM636.516 589.417C647.761 589.417 654.406 580.972 658.495 558.067C659.646 551.796 660.157 546.806 660.157 542.839C660.157 531.707 655.812 526.844 647.378 526.844C636.133 526.844 629.488 535.289 625.527 558.067C624.377 564.593 623.738 569.711 623.738 573.678C623.738 584.682 628.082 589.417 636.516 589.417Z" fill="#CC0200"/>
<path d="M570.451 600.333L585.461 514.988C585.85 512.91 586.885 512 588.955 512H599.825C601.895 512 602.801 512.91 602.542 514.988L587.532 600.333C587.144 602.541 586.108 603.45 584.038 603.45H573.168C571.098 603.45 570.063 602.541 570.451 600.333Z" fill="black"/>
<path d="M520.499 549.671H533.183C542.603 549.671 549.384 544.995 549.384 534.343C549.384 528.498 545.617 526.289 537.202 526.289H524.518L520.499 549.671ZM526.778 603.45H498.27C496.135 603.45 495.256 602.541 495.632 600.333L510.201 514.988C510.577 512.91 511.457 512 513.592 512H539.086C556.041 512 566.213 517.976 566.213 530.966C566.213 540.968 561.692 550.971 551.394 555.127C557.171 556.946 561.441 562.791 561.441 572.144C561.441 592.668 547.501 603.45 526.778 603.45ZM513.717 589.031H527.03C537.453 589.031 545.114 584.095 545.114 572.274C545.114 565.909 541.221 563.181 531.802 563.181H518.238L513.717 589.031Z" fill="black"/>
<defs>
<linearGradient id="paint0_linear_532_66" x1="1431.97" y1="585.1" x2="1490.97" y2="524.6" gradientUnits="userSpaceOnUse">
<stop stop-color="#132337"/>
<stop offset="1" stop-color="#255B83"/>
</linearGradient>
</defs>
</svg>
